# xmcd CD database file
#
# Track frame offsets:
#	150
#	16575
#	34790
#	53567
#	68007
#	79344
#	94652
#	114114
#	127952
#	145079
#	155154
#	171807
#	183349
#	196382
#	215212
#	226664
#	240162
#
# Disc length: 3345 seconds
#
# Revision: 1
# Processed by: cddbd v1.5.1PL2 Copyright (c) Steve Scherf et al.
# Submitted via: CDex 1.70beta2
#
DISCID=d20d0f11
DTITLE=Nina Simone - Legendarios del S. XX 35 [CD1]
DYEAR=2004
DGENRE=Blues
TTITLE0=My Babe Just Cares For Me
TTITLE1=Mood Indigo
TTITLE2=I Love You Poggy
TTITLE3=Don't Smoke In My Bed
TTITLE4=He Needs Me
TTITLE5=Love Me or Leave Me
TTITLE6=Little Girl Blue
TTITLE7=I Like The Sunrise
TTITLE8=Solitude
TTITLE9=The Gal From Joe's
TTITLE10=Satin Doll
TTITLE11=Iy Don't Mean aThing
TTITLE12=Do Nothin' Till You Hear From Me
TTITLE13=I Got It Bad And That Ain't Good
TTITLE14=Hey Buddy Bolden
TTITLE15=Something to Live For
TTITLE16=You Better Know It
EXTD=YEAR: 2004
EXTT0=
EXTT1=
EXTT2=
EXTT3=
EXTT4=
EXTT5=
EXTT6=
EXTT7=
EXTT8=
EXTT9=
EXTT10=
EXTT11=
EXTT12=
EXTT13=
EXTT14=
EXTT15=
EXTT16=
PLAYORDER=
